<?xml version="1.0" encoding="utf-8"?>
<!-- Generator: Adobe Illustrator 16.0.0, SVG Export Plug-In . SVG Version: 6.00 Build 0)  -->
<!DOCTYPE svg PUBLIC "-//W3C//DTD SVG 1.1//EN" "http://www.w3.org/Graphics/SVG/1.1/DTD/svg11.dtd">
<svg version="1.1" id="Layer_1" xmlns="http://www.w3.org/2000/svg" xmlns:xlink="http://www.w3.org/1999/xlink" x="0px" y="0px"
	 width="1280px" height="700px" viewBox="-462.5 -317.5 1280 700" enable-background="new -462.5 -317.5 1280 700"
	 xml:space="preserve">
<path fill="#D71920" d="M595.705-137.278c0,34.283-26.078,58.044-55.765,53.451c-27.275-4.246-47.796-31.244-47.796-60.65
	c0-29.374,20.521-53.528,47.796-53.958C569.627-198.948,595.705-171.561,595.705-137.278z"/>
<polygon fill="#D1D3D4" points="431.208,-85.308 431.208,-159.599 433.824,-161.236 433.824,-85.148 "/>
<polygon fill="#A7A9AC" points="436.541,-153.796 443.223,-149.002 447.525,-150.874 436.443,-157.536 "/>
<polygon fill="#FFFFFF" points="433.824,-84.758 437.078,-84.175 437.078,-158.393 433.824,-158.588 "/>
<polygon fill="#D1D3D4" points="446.278,-151.261 442.985,-149.158 442.985,-83.083 446.46,-82.459 "/>
<polygon fill="#FFFFFF" points="448.966,-149.784 448.966,-153.755 433.824,-161.236 433.824,-158.003 "/>
<polygon fill="#FFFFFF" points="446.278,-82.5 448.966,-81.994 448.966,-151.927 446.278,-152.081 "/>
<polygon fill="#D1D3D4" points="465.221,-79.111 465.221,-172.417 468.202,-174.363 468.202,-78.92 "/>
<polygon fill="#A7A9AC" points="471.294,-165.988 478.902,-160.69 483.815,-162.952 471.174,-170.237 "/>
<polygon fill="#FFFFFF" points="468.202,-78.488 471.912,-77.827 471.912,-171.247 468.202,-171.326 "/>
<polygon fill="#D1D3D4" points="482.399,-163.299 478.646,-160.886 478.646,-76.735 482.602,-76.037 "/>
<polygon fill="#FFFFFF" points="485.466,-161.742 485.466,-166.261 468.202,-174.363 468.202,-170.664 "/>
<polygon fill="#FFFFFF" points="482.39,-76.068 485.466,-75.524 485.466,-164.156 482.39,-164.314 "/>
<polygon fill="#FFFFFF" points="513.048,-70.427 505.548,-71.784 505.548,-166.574 513.048,-166.302 "/>
<polygon fill="#FFFFFF" points="544.092,-64.735 535.842,-66.254 535.842,-165.559 544.092,-165.287 "/>
<polygon fill="#D1D3D4" points="701.068,-35.944 701.068,-146.083 695.389,-148.927 695.389,-36.923 "/>
<polygon fill="#A7A9AC" points="689.617,-138.641 676.032,-133.261 667.648,-136.811 689.837,-144.057 "/>
<polygon fill="#FFFFFF" points="695.389,-36.923 688.491,-38.167 688.491,-145.419 695.389,-145.067 "/>
<polygon fill="#D1D3D4" points="670.035,-137.082 676.48,-133.458 676.48,-40.386 669.688,-41.632 "/>
<polygon fill="#FFFFFF" points="664.904,-135.64 664.904,-141.054 695.389,-148.927 695.389,-144.212 "/>
<polygon fill="#FFFFFF" points="670.042,-41.552 664.913,-42.491 664.913,-138.561 670.042,-138.252 "/>
<polygon fill="#D1D3D4" points="636.156,-48.064 636.156,-168.052 631.282,-170.705 631.282,-48.688 "/>
<polygon fill="#A7A9AC" points="626.308,-160.38 614.606,-154.653 607.38,-157.961 626.502,-165.718 "/>
<polygon fill="#FFFFFF" points="631.282,-48.688 625.345,-49.777 625.345,-167.038 631.282,-166.887 "/>
<polygon fill="#D1D3D4" points="609.436,-158.274 614.994,-154.846 614.994,-51.725 609.136,-52.816 "/>
<polygon fill="#FFFFFF" points="605.01,-156.679 605.01,-162.055 631.282,-170.705 631.282,-166.028 "/>
<polygon fill="#FFFFFF" points="609.436,-52.659 605.013,-53.474 605.013,-159.599 609.436,-159.445 "/>
<polygon fill="#FFFFFF" points="569.176,-60.063 578.265,-58.384 578.265,-164.156 569.176,-164.431 "/>
<linearGradient id="SVGID_1_" gradientUnits="userSpaceOnUse" x1="-229.2273" y1="1407.1904" x2="-229.2273" y2="1348.4404" gradientTransform="matrix(1 0 0 1 772.8398 -1571.3457)">
	<stop  offset="0" style="stop-color:#CCCCCC"/>
	<stop  offset="1" style="stop-color:#999999"/>
</linearGradient>
<polygon fill="url(#SVGID_1_)" points="585.912,-222.517 585.912,-222.867 496.781,-218.465 496.781,-218.193 493.907,-218.039 
	505.548,-166.574 513.048,-166.339 503.912,-210.324 534.481,-211.415 535.842,-165.559 544.092,-165.287 545.496,-211.803 
	580.312,-213.052 569.176,-164.469 578.265,-164.156 593.317,-222.906 "/>
<polygon fill="#FFFFFF" points="587.81,-228.856 497.845,-223.519 493.941,-218.013 593.36,-222.909 "/>
<linearGradient id="SVGID_2_" gradientUnits="userSpaceOnUse" x1="291.1106" y1="103.7344" x2="291.1106" y2="175.5625" gradientTransform="matrix(1 0 0 -1 -8.3599 89.0547)">
	<stop  offset="0" style="stop-color:#F48580"/>
	<stop  offset="1" style="stop-color:#E41B23"/>
</linearGradient>
<polygon fill="url(#SVGID_2_)" points="429.722,-86.508 -252,-85.659 429.768,-85.659 429.768,-85.666 817.5,-14.681 817.5,-15.519 
	"/>
</svg>
