<?xml version="1.0" encoding="utf-8"?>
<!-- Generator: Adobe Illustrator 16.0.0, SVG Export Plug-In . SVG Version: 6.00 Build 0)  -->
<!DOCTYPE svg PUBLIC "-//W3C//DTD SVG 1.1//EN" "http://www.w3.org/Graphics/SVG/1.1/DTD/svg11.dtd">
<svg version="1.1" id="Layer_1" xmlns="http://www.w3.org/2000/svg" xmlns:xlink="http://www.w3.org/1999/xlink" x="0px" y="0px"
	 width="320px" height="110px" viewBox="-124 -19 320 110" enable-background="new -124 -19 320 110" xml:space="preserve">
<g>
	<path fill="#FFFFFF" d="M-119.508,41.494v-52.676h16.527c4.172,0,7.73,1.473,10.675,4.417c2.945,2.969,4.417,6.528,4.417,10.675
		c0,3.706-1.191,6.958-3.571,9.754c2.037,1.399,3.631,3.191,4.786,5.375c1.227,2.233,1.84,4.626,1.84,7.177
		c0,4.222-1.498,7.817-4.491,10.787c-2.97,2.994-6.552,4.49-10.749,4.49H-119.508z M-111.521,11.015h8.54
		c1.963,0,3.632-0.699,5.006-2.098c1.398-1.374,2.098-3.042,2.098-5.006c0-1.963-0.7-3.632-2.098-5.006
		c-1.375-1.398-3.043-2.098-5.006-2.098h-8.54V11.015z M-111.521,33.506h11.448c1.988,0,3.693-0.712,5.117-2.136
		c1.399-1.422,2.098-3.141,2.098-5.153c0-1.987-0.699-3.681-2.098-5.08c-1.424-1.423-3.129-2.135-5.117-2.135h-11.448V33.506z"/>
	<path fill="#FFFFFF" d="M-39.666-11.182v52.676h-8.025V29.2h-17.89l-7.767,12.294h-9.46l33.314-52.676H-39.666z M-60.538,21.211
		h12.847V0.929L-60.538,21.211z"/>
	<path fill="#FFFFFF" d="M5.832-11.182l-16.417,27.902v24.773h-8.025V16.721l-16.417-27.902h9.276l11.154,18.921l11.153-18.921
		H5.832z"/>
	<path fill="#FFFFFF" d="M39.365-11.182v52.676h-8.024V29.2h-17.89L5.684,41.494h-9.46l33.313-52.676H39.365z M18.494,21.211h12.847
		V0.929L18.494,21.211z"/>
	<path fill="#FFFFFF" d="M86.703-11.182v52.676h-8.354L55.82,3.837v37.657h-7.988v-52.676h8.356L78.68,26.475v-37.657H86.703z"/>
	<path fill="#FFFFFF" d="M133.379-11.182v52.676h-8.355L102.495,3.837v37.657h-7.988v-52.676h8.356l22.492,37.657v-37.657H133.379z"
		/>
	<path fill="#FFFFFF" d="M146.779,34.132c-5.253-5.251-7.879-11.583-7.879-18.995c0-7.411,2.626-13.743,7.879-18.994
		c5.25-5.251,11.581-7.878,18.992-7.878c7.412,0,13.742,2.626,18.995,7.878c5.251,5.251,7.877,11.583,7.877,18.994
		c0,7.412-2.626,13.743-7.877,18.995c-5.253,5.252-11.583,7.876-18.995,7.876C158.36,42.009,152.029,39.385,146.779,34.132z
		 M152.446,1.813c-3.681,3.681-5.521,8.123-5.521,13.325c0,5.203,1.84,9.645,5.521,13.325c3.681,3.682,8.123,5.522,13.325,5.522
		c5.203,0,9.646-1.841,13.325-5.522c3.682-3.681,5.522-8.123,5.522-13.325c0-5.202-1.841-9.644-5.522-13.325
		c-3.68-3.681-8.122-5.521-13.325-5.521C160.569-3.709,156.127-1.868,152.446,1.813z"/>
</g>
<g>
	<path fill="#FFFFFF" d="M-118.976,46.076h1.328v19.015h-1.328V46.076z"/>
	<path fill="#FFFFFF" d="M-102.522,46.166v18.925h-1.418l-7.148-15.774v15.774h-1.317V46.166h1.428l7.138,15.775V46.166H-102.522z"
		/>
	<path fill="#FFFFFF" d="M-89.552,46.166v1.74h-6v6.825h4.742v1.742h-4.742v8.617h-1.318V46.166H-89.552z"/>
	<path fill="#FFFFFF" d="M-83.032,62.456c-1.431-1.881-2.146-4.152-2.146-6.813c0-2.663,0.715-4.938,2.146-6.827
		c1.425-1.881,3.145-2.82,5.162-2.82s3.741,0.939,5.172,2.82c1.424,1.889,2.136,4.164,2.136,6.827c0,2.66-0.712,4.932-2.136,6.813
		c-1.431,1.887-3.155,2.833-5.172,2.833S-81.607,64.343-83.032,62.456z M-82.104,50.056c-1.171,1.547-1.757,3.408-1.757,5.588
		c0,2.179,0.586,4.04,1.757,5.587c1.172,1.547,2.583,2.318,4.233,2.318c1.651,0,3.062-0.771,4.233-2.318s1.757-3.408,1.757-5.587
		c0-2.18-0.586-4.041-1.757-5.588s-2.582-2.32-4.233-2.32C-79.521,47.735-80.932,48.509-82.104,50.056z"/>
	<path fill="#FFFFFF" d="M-55.896,65.091h-1.478l-3.364-8.553h-3.435v8.54h-1.318V46.166h5.152c1.084,0,2.01,0.511,2.775,1.53
		c0.765,1.01,1.148,2.231,1.148,3.662c0,1.186-0.276,2.251-0.829,3.19c-0.539,0.914-1.231,1.52-2.077,1.817L-55.896,65.091z
		 M-60.338,54.799c0.719,0,1.334-0.334,1.847-1.001c0.506-0.676,0.759-1.489,0.759-2.439c0-0.947-0.253-1.761-0.759-2.437
		c-0.512-0.677-1.128-1.016-1.847-1.016h-3.834v6.893H-60.338z"/>
	<path fill="#FFFFFF" d="M-37.415,46.166v18.912h-1.308V50.371l-4.822,14.72h-1.438l-4.812-14.72v14.707h-1.317V46.166h1.377
		l5.471,16.737l5.481-16.737H-37.415z"/>
	<path fill="#FFFFFF" d="M-21.85,46.166v18.925h-1.308v-4.73h-5.69l-2.266,4.73h-1.558l9.065-18.925H-21.85z M-28.019,58.621h4.861
		V48.486L-28.019,58.621z"/>
	<path fill="#FFFFFF" d="M-8.061,46.166v1.74h-3.754v17.185h-1.318V47.906h-3.764v-1.74H-8.061z"/>
	<path fill="#FFFFFF" d="M-3.498,46.076h1.328v19.015h-1.328V46.076z"/>
	<path fill="#FFFFFF" d="M4.55,62.456c-1.43-1.881-2.146-4.152-2.146-6.813c0-2.663,0.715-4.938,2.146-6.827
		c1.425-1.881,3.146-2.82,5.162-2.82s3.74,0.939,5.172,2.82c1.424,1.889,2.136,4.164,2.136,6.827c0,2.66-0.712,4.932-2.136,6.813
		c-1.432,1.887-3.155,2.833-5.172,2.833S5.975,64.343,4.55,62.456z M5.479,50.056c-1.171,1.547-1.757,3.408-1.757,5.588
		c0,2.179,0.586,4.04,1.757,5.587s2.582,2.318,4.233,2.318s3.062-0.771,4.233-2.318c1.171-1.547,1.757-3.408,1.757-5.587
		c0-2.18-0.586-4.041-1.757-5.588c-1.171-1.547-2.583-2.32-4.233-2.32S6.65,48.509,5.479,50.056z"/>
	<path fill="#FFFFFF" d="M31.946,46.166v18.925h-1.417L23.38,49.316v15.774h-1.317V46.166h1.427l7.137,15.775V46.166H31.946z"/>
	<path fill="#FFFFFF" d="M54.211,46.166v1.74h-3.754v17.185h-1.316V47.906h-3.766v-1.74H54.211z"/>
	<path fill="#FFFFFF" d="M66.594,46.166v1.74h-6.002v6.825h4.742v1.742h-4.742v6.878h6.002v1.739h-7.32V46.166H66.594z"/>
	<path fill="#FFFFFF" d="M78.314,63.535c1.178,0,2.262-0.426,3.254-1.277v2.004c-1.025,0.676-2.109,1.015-3.254,1.015
		c-2.018,0-3.738-0.946-5.164-2.835c-1.43-1.879-2.146-4.15-2.146-6.813s0.717-4.935,2.146-6.813
		c1.426-1.89,3.146-2.833,5.164-2.833c1.145,0,2.229,0.338,3.254,1.014v2.002c-0.992-0.852-2.076-1.277-3.254-1.277
		c-1.65,0-3.063,0.773-4.234,2.32c-1.17,1.547-1.758,3.408-1.758,5.587c0,2.18,0.588,4.041,1.758,5.588
		C75.252,62.764,76.664,63.535,78.314,63.535z"/>
	<path fill="#FFFFFF" d="M96.375,46.166v18.925h-1.318v-8.617h-7.268v8.617h-1.318V46.166h1.318v8.565h7.268v-8.565H96.375z"/>
	<path fill="#FFFFFF" d="M111.74,46.166v18.925h-1.416l-7.148-15.774v15.774h-1.318V46.166h1.428l7.139,15.775V46.166H111.74z"/>
	<path fill="#FFFFFF" d="M118.869,62.456c-1.43-1.881-2.145-4.152-2.145-6.813c0-2.663,0.715-4.938,2.145-6.827
		c1.426-1.881,3.146-2.82,5.162-2.82c2.018,0,3.74,0.939,5.172,2.82c1.424,1.889,2.137,4.164,2.137,6.827
		c0,2.66-0.713,4.932-2.137,6.813c-1.432,1.887-3.154,2.833-5.172,2.833C122.016,65.289,120.295,64.343,118.869,62.456z
		 M119.799,50.056c-1.172,1.547-1.756,3.408-1.756,5.588c0,2.179,0.584,4.04,1.756,5.587s2.582,2.318,4.232,2.318
		c1.652,0,3.063-0.771,4.234-2.318s1.756-3.408,1.756-5.587c0-2.18-0.584-4.041-1.756-5.588s-2.582-2.32-4.234-2.32
		C122.381,47.735,120.971,48.509,119.799,50.056z"/>
	<path fill="#FFFFFF" d="M137.701,46.166v17.186h6.658v1.739h-7.977V46.166H137.701z"/>
	<path fill="#FFFFFF" d="M149.313,62.456c-1.432-1.881-2.146-4.152-2.146-6.813c0-2.663,0.715-4.938,2.146-6.827
		c1.424-1.881,3.145-2.82,5.162-2.82s3.738,0.939,5.172,2.82c1.424,1.889,2.135,4.164,2.135,6.827c0,2.66-0.711,4.932-2.135,6.813
		c-1.434,1.887-3.154,2.833-5.172,2.833S150.736,64.343,149.313,62.456z M150.24,50.056c-1.17,1.547-1.756,3.408-1.756,5.588
		c0,2.179,0.586,4.04,1.756,5.587c1.172,1.547,2.584,2.318,4.234,2.318s3.061-0.771,4.232-2.318s1.756-3.408,1.756-5.587
		c0-2.18-0.584-4.041-1.756-5.588s-2.582-2.32-4.232-2.32S151.412,48.509,150.24,50.056z"/>
	<path fill="#FFFFFF" d="M168.252,62.441c-1.432-1.879-2.146-4.15-2.146-6.813c0-2.652,0.715-4.924,2.146-6.813
		c1.426-1.881,3.145-2.82,5.162-2.82c0.992,0,1.939,0.25,2.846,0.751l-0.52,1.607c-0.74-0.413-1.514-0.619-2.326-0.619
		c-1.65,0-3.063,0.768-4.234,2.307c-1.17,1.547-1.756,3.408-1.756,5.587c0,2.18,0.586,4.041,1.756,5.588
		c1.172,1.547,2.584,2.318,4.234,2.318c0.664,0,1.311-0.14,1.936-0.422v-6.666h-2.984v-1.741h4.303v9.582l-0.398,0.223
		c-0.912,0.509-1.863,0.766-2.855,0.766C171.396,65.276,169.678,64.33,168.252,62.441z"/>
	<path fill="#FFFFFF" d="M190.977,46.166l-4.404,9.872v9.053h-1.318v-9.053l-4.402-9.872h1.529l3.533,7.935l3.543-7.935H190.977z"/>
</g>
<line fill="none" stroke="#FFFFFF" stroke-miterlimit="10" x1="-119.508" y1="72" x2="190.445" y2="72"/>
<path fill="#EDEDED" d="M-119.629,82.661l2.414-0.507c0.203,0.796,0.724,1.194,1.563,1.194c0.654,0,0.98-0.203,0.98-0.608
	c0-0.212-0.076-0.377-0.227-0.496c-0.151-0.118-0.421-0.223-0.81-0.314c-1.485-0.332-2.438-0.766-2.86-1.302
	s-0.633-1.166-0.633-1.89c0-0.932,0.303-1.707,0.909-2.325c0.606-0.617,1.478-0.927,2.615-0.927c1.725,0,2.864,0.809,3.418,2.426
	l-2.153,0.76c-0.224-0.661-0.676-0.992-1.359-0.992c-0.567,0-0.85,0.206-0.85,0.616c0,0.183,0.064,0.325,0.192,0.427
	s0.376,0.197,0.745,0.289c1.014,0.25,1.733,0.472,2.16,0.664s0.782,0.521,1.067,0.987s0.428,1.016,0.428,1.648
	c0,0.999-0.348,1.81-1.042,2.43c-0.695,0.621-1.607,0.932-2.736,0.932C-117.871,85.673-119.145,84.669-119.629,82.661z"/>
<path fill="#EDEDED" d="M-103.354,75.639v9.882h-2.6v-9.882H-103.354z"/>
<path fill="#EDEDED" d="M-87.586,75.639v9.882H-90v-7.065l-1.567,7.065h-1.65l-1.628-7.065v7.065h-1.948v-9.882h3.397l1.229,5.249
	l1.172-5.249H-87.586z"/>
<path fill="#EDEDED" d="M-78.391,81.93v3.591h-2.637v-9.882h3.617c0.902,0,1.587,0.12,2.057,0.362
	c0.47,0.241,0.842,0.61,1.117,1.107c0.275,0.497,0.413,1.055,0.413,1.672c0,0.941-0.281,1.701-0.844,2.28s-1.313,0.869-2.252,0.869
	H-78.391z M-78.428,79.809h0.869c0.765,0,1.148-0.328,1.148-0.984c0-0.618-0.354-0.927-1.061-0.927h-0.956V79.809z"/>
<path fill="#EDEDED" d="M-61.836,83.096v2.425h-5.938v-9.882h2.6v7.457H-61.836z"/>
<path fill="#EDEDED" d="M-49.476,83.16v2.36h-6.372v-9.882h6.372v2.28h-3.822v1.434h3.09v2.193h-3.09v1.614H-49.476z"/>
<path fill="#EDEDED" d="M-31.624,78.006v7.515h-2.463v-7.515h-1.756v-2.367h5.975v2.367H-31.624z"/>
<path fill="#EDEDED" d="M-20.386,85.673c-1.191,0-2.162-0.461-2.913-1.383c-0.75-0.922-1.126-2.155-1.126-3.699
	c0-1.478,0.359-2.697,1.077-3.66c0.717-0.963,1.713-1.444,2.987-1.444c1.179,0,2.139,0.454,2.882,1.361
	c0.742,0.907,1.114,2.119,1.114,3.634c0,1.569-0.375,2.826-1.123,3.772C-18.237,85.199-19.203,85.673-20.386,85.673z
	 M-20.398,83.429c0.438,0,0.753-0.224,0.946-0.67s0.289-1.264,0.289-2.451c0-1.718-0.395-2.577-1.185-2.577
	c-0.852,0-1.278,0.98-1.278,2.939C-21.626,82.509-21.217,83.429-20.398,83.429z"/>
<path fill="#EDEDED" d="M-3.316,75.639v6.544c0,1.241-0.315,2.133-0.946,2.676c-0.631,0.543-1.453,0.814-2.466,0.814
	c-1.067,0-1.925-0.261-2.572-0.782c-0.647-0.521-0.971-1.37-0.971-2.548v-6.704h2.643v6.349c0,0.474,0.085,0.818,0.257,1.035
	c0.171,0.218,0.444,0.326,0.82,0.326c0.313,0,0.57-0.078,0.771-0.235c0.2-0.156,0.319-0.334,0.359-0.532
	c0.039-0.197,0.059-0.584,0.059-1.158v-5.784H-3.316z"/>
<path fill="#EDEDED" d="M7.816,81.749l2.376,0.166c-0.111,1.212-0.495,2.141-1.151,2.787c-0.655,0.647-1.461,0.971-2.417,0.971
	c-1.15,0-2.079-0.444-2.786-1.332c-0.708-0.889-1.061-2.114-1.061-3.678c0-1.55,0.335-2.8,1.005-3.75
	c0.67-0.951,1.605-1.427,2.805-1.427c1.121,0,1.982,0.362,2.584,1.086c0.602,0.725,0.942,1.685,1.021,2.882l-2.426,0.151
	c0-0.661-0.108-1.139-0.326-1.433c-0.217-0.295-0.473-0.442-0.766-0.442c-0.819,0-1.229,0.961-1.229,2.882
	c0,1.076,0.106,1.808,0.319,2.193s0.512,0.579,0.896,0.579C7.348,83.385,7.733,82.84,7.816,81.749z"/>
<path fill="#EDEDED" d="M23.408,75.639v9.882h-2.6v-3.844h-1.985v3.844h-2.6v-9.882h2.6v3.634h1.985v-3.634H23.408z"/>
<path fill="#EDEDED" d="M38.221,85.521v-9.882h4.3c0.894,0,1.545,0.263,1.954,0.789s0.614,1.127,0.614,1.803
	c0,0.492-0.119,0.938-0.356,1.336c-0.238,0.397-0.593,0.672-1.064,0.821c1.097,0.309,1.645,1.076,1.645,2.302
	c0,0.734-0.193,1.39-0.58,1.966c-0.387,0.577-1.213,0.865-2.479,0.865H38.221z M40.615,79.425h1.204
	c0.302,0,0.515-0.089,0.639-0.268s0.187-0.369,0.187-0.572c0-0.55-0.29-0.825-0.869-0.825h-1.16V79.425z M40.615,83.319h1.266
	c0.314,0,0.545-0.09,0.692-0.271c0.146-0.181,0.22-0.385,0.22-0.611s-0.071-0.436-0.214-0.626s-0.404-0.286-0.784-0.286h-1.18
	V83.319z"/>
<path fill="#EDEDED" d="M59.007,85.521h-2.882l-1.236-3.779h-0.82v3.779h-2.6v-9.882h4.424c0.976,0,1.734,0.267,2.273,0.8
	c0.54,0.533,0.811,1.237,0.811,2.11c0,0.569-0.1,1.072-0.298,1.51c-0.199,0.437-0.601,0.821-1.204,1.154L59.007,85.521z
	 M54.068,79.628h1.11c0.327,0,0.59-0.08,0.788-0.239s0.298-0.394,0.298-0.702c0-0.633-0.333-0.948-0.999-0.948h-1.197V79.628z"/>
<path fill="#EDEDED" d="M67.918,75.639v9.882h-2.6v-9.882H67.918z"/>
<path fill="#EDEDED" d="M81.792,79.982v5.538H80.52c-0.104-0.41-0.217-0.755-0.341-1.035c-0.525,0.791-1.303,1.188-2.333,1.188
	c-1.092,0-1.989-0.445-2.692-1.336c-0.704-0.891-1.056-2.096-1.056-3.616c0-1.477,0.341-2.719,1.021-3.725
	c0.68-1.007,1.692-1.51,3.037-1.51c1.009,0,1.821,0.3,2.438,0.897c0.616,0.599,1.016,1.448,1.198,2.549l-2.52,0.289
	c-0.124-1.027-0.511-1.542-1.16-1.542c-0.853,0-1.278,0.946-1.278,2.838c0,1.145,0.137,1.898,0.41,2.263
	c0.272,0.364,0.604,0.547,0.992,0.547c0.314,0,0.582-0.111,0.804-0.333c0.221-0.222,0.334-0.526,0.338-0.912h-1.402v-2.1H81.792z"/>
<path fill="#EDEDED" d="M95.431,75.639v9.882h-2.6v-3.844h-1.985v3.844h-2.6v-9.882h2.6v3.634h1.985v-3.634H95.431z"/>
<path fill="#EDEDED" d="M105.464,78.006v7.515h-2.463v-7.515h-1.756v-2.367h5.975v2.367H105.464z"/>
<path fill="#EDEDED" d="M126.592,81.821h-2.761v3.699H121.3v-9.882h6.124v2.353h-3.593v1.607h2.761V81.821z"/>
<path fill="#EDEDED" d="M140.2,75.639v6.544c0,1.241-0.315,2.133-0.946,2.676s-1.452,0.814-2.466,0.814
	c-1.067,0-1.925-0.261-2.572-0.782s-0.971-1.37-0.971-2.548v-6.704h2.644v6.349c0,0.474,0.085,0.818,0.256,1.035
	c0.172,0.218,0.445,0.326,0.82,0.326c0.313,0,0.57-0.078,0.771-0.235c0.2-0.156,0.319-0.334,0.358-0.532
	c0.039-0.197,0.06-0.584,0.06-1.158v-5.784H140.2z"/>
<path fill="#EDEDED" d="M150.153,78.006v7.515h-2.463v-7.515h-1.756v-2.367h5.975v2.367H150.153z"/>
<path fill="#EDEDED" d="M164.598,75.639v6.544c0,1.241-0.315,2.133-0.946,2.676s-1.452,0.814-2.466,0.814
	c-1.067,0-1.925-0.261-2.572-0.782s-0.971-1.37-0.971-2.548v-6.704h2.644v6.349c0,0.474,0.085,0.818,0.256,1.035
	c0.172,0.218,0.445,0.326,0.82,0.326c0.313,0,0.57-0.078,0.771-0.235c0.2-0.156,0.319-0.334,0.358-0.532
	c0.039-0.197,0.06-0.584,0.06-1.158v-5.784H164.598z"/>
<path fill="#EDEDED" d="M178.608,85.521h-2.882l-1.236-3.779h-0.82v3.779h-2.6v-9.882h4.424c0.976,0,1.734,0.267,2.273,0.8
	c0.54,0.533,0.811,1.237,0.811,2.11c0,0.569-0.1,1.072-0.298,1.51c-0.199,0.437-0.601,0.821-1.204,1.154L178.608,85.521z
	 M173.67,79.628h1.11c0.327,0,0.59-0.08,0.788-0.239s0.298-0.394,0.298-0.702c0-0.633-0.333-0.948-0.999-0.948h-1.197V79.628z"/>
<path fill="#EDEDED" d="M191.292,83.16v2.36h-6.372v-9.882h6.372v2.28h-3.822v1.434h3.09v2.193h-3.09v1.614H191.292z"/>
<path fill="#AA0000" d="M-118.976,82.489l2.414-0.507c0.203,0.796,0.724,1.194,1.563,1.194c0.654,0,0.98-0.203,0.98-0.608
	c0-0.212-0.076-0.377-0.227-0.496c-0.151-0.118-0.421-0.223-0.81-0.314c-1.485-0.332-2.438-0.766-2.86-1.302
	s-0.633-1.166-0.633-1.89c0-0.932,0.303-1.707,0.909-2.325c0.606-0.617,1.478-0.927,2.615-0.927c1.725,0,2.864,0.809,3.418,2.426
	l-2.153,0.76c-0.224-0.661-0.676-0.992-1.359-0.992c-0.567,0-0.85,0.206-0.85,0.616c0,0.183,0.064,0.325,0.192,0.427
	s0.376,0.197,0.745,0.289c1.014,0.25,1.733,0.472,2.16,0.664s0.782,0.521,1.067,0.987s0.428,1.016,0.428,1.648
	c0,0.999-0.348,1.81-1.042,2.43c-0.695,0.621-1.607,0.932-2.736,0.932C-117.218,85.501-118.492,84.497-118.976,82.489z"/>
<path fill="#AA0000" d="M-102.701,75.467v9.882h-2.6v-9.882H-102.701z"/>
<path fill="#AA0000" d="M-86.934,75.467v9.882h-2.414v-7.065l-1.567,7.065h-1.65l-1.628-7.065v7.065h-1.948v-9.882h3.397
	l1.229,5.249l1.172-5.249H-86.934z"/>
<path fill="#AA0000" d="M-77.738,81.758v3.591h-2.637v-9.882h3.617c0.902,0,1.587,0.12,2.057,0.362
	c0.47,0.241,0.842,0.61,1.117,1.107c0.275,0.497,0.413,1.055,0.413,1.672c0,0.941-0.281,1.701-0.844,2.28s-1.313,0.869-2.252,0.869
	H-77.738z M-77.775,79.637h0.869c0.765,0,1.148-0.328,1.148-0.984c0-0.618-0.354-0.927-1.061-0.927h-0.956V79.637z"/>
<path fill="#AA0000" d="M-61.183,82.924v2.425h-5.938v-9.882h2.6v7.457H-61.183z"/>
<path fill="#AA0000" d="M-48.823,82.988v2.36h-6.372v-9.882h6.372v2.28h-3.822v1.434h3.09v2.193h-3.09v1.614H-48.823z"/>
<path fill="#AA0000" d="M-30.971,77.834v7.515h-2.463v-7.515h-1.756v-2.367h5.975v2.367H-30.971z"/>
<path fill="#AA0000" d="M-19.733,85.501c-1.191,0-2.162-0.461-2.913-1.383c-0.75-0.922-1.126-2.155-1.126-3.699
	c0-1.478,0.359-2.697,1.077-3.66c0.717-0.963,1.713-1.444,2.987-1.444c1.179,0,2.139,0.454,2.882,1.361
	c0.742,0.907,1.114,2.119,1.114,3.634c0,1.569-0.375,2.826-1.123,3.772C-17.584,85.027-18.55,85.501-19.733,85.501z M-19.745,83.257
	c0.438,0,0.753-0.224,0.946-0.67s0.289-1.264,0.289-2.451c0-1.718-0.395-2.577-1.185-2.577c-0.852,0-1.278,0.98-1.278,2.939
	C-20.974,82.337-20.564,83.257-19.745,83.257z"/>
<path fill="#AA0000" d="M-2.664,75.467v6.544c0,1.241-0.315,2.133-0.946,2.676c-0.631,0.543-1.453,0.814-2.466,0.814
	c-1.067,0-1.925-0.261-2.572-0.782c-0.647-0.521-0.971-1.37-0.971-2.548v-6.704h2.643v6.349c0,0.474,0.085,0.818,0.257,1.035
	c0.171,0.218,0.444,0.326,0.82,0.326c0.313,0,0.57-0.078,0.771-0.235c0.2-0.156,0.319-0.334,0.359-0.532
	c0.039-0.197,0.059-0.584,0.059-1.158v-5.784H-2.664z"/>
<path fill="#AA0000" d="M8.469,81.577l2.376,0.166c-0.111,1.212-0.495,2.141-1.151,2.787c-0.655,0.647-1.461,0.971-2.417,0.971
	c-1.15,0-2.079-0.444-2.786-1.332c-0.708-0.889-1.061-2.114-1.061-3.678c0-1.55,0.335-2.8,1.005-3.75
	c0.67-0.951,1.605-1.427,2.805-1.427c1.121,0,1.982,0.362,2.584,1.086c0.602,0.725,0.942,1.685,1.021,2.882l-2.426,0.151
	c0-0.661-0.108-1.139-0.326-1.433c-0.217-0.295-0.473-0.442-0.766-0.442c-0.819,0-1.229,0.961-1.229,2.882
	c0,1.076,0.106,1.808,0.319,2.193s0.512,0.579,0.896,0.579C8.001,83.213,8.386,82.668,8.469,81.577z"/>
<path fill="#AA0000" d="M24.061,75.467v9.882h-2.6v-3.844h-1.985v3.844h-2.6v-9.882h2.6v3.634h1.985v-3.634H24.061z"/>
<path fill="#1C6802" d="M38.996,85.597v-9.882h4.3c0.894,0,1.545,0.263,1.954,0.789s0.614,1.127,0.614,1.803
	c0,0.492-0.119,0.938-0.356,1.336c-0.238,0.397-0.593,0.672-1.064,0.821c1.097,0.309,1.645,1.076,1.645,2.302
	c0,0.734-0.193,1.39-0.58,1.966c-0.387,0.577-1.213,0.865-2.479,0.865H38.996z M41.391,79.501h1.204
	c0.302,0,0.515-0.089,0.639-0.268s0.187-0.369,0.187-0.572c0-0.55-0.29-0.825-0.869-0.825h-1.16V79.501z M41.391,83.396h1.266
	c0.314,0,0.545-0.09,0.692-0.271c0.146-0.181,0.22-0.385,0.22-0.611s-0.071-0.436-0.214-0.626s-0.404-0.286-0.784-0.286h-1.18
	V83.396z"/>
<path fill="#1C6802" d="M59.782,85.597H56.9l-1.236-3.779h-0.82v3.779h-2.6v-9.882h4.424c0.976,0,1.734,0.267,2.273,0.8
	c0.54,0.533,0.811,1.237,0.811,2.11c0,0.569-0.1,1.072-0.298,1.51c-0.199,0.437-0.601,0.821-1.204,1.154L59.782,85.597z
	 M54.844,79.704h1.11c0.327,0,0.59-0.08,0.788-0.239s0.298-0.394,0.298-0.702c0-0.633-0.333-0.948-0.999-0.948h-1.197V79.704z"/>
<path fill="#1C6802" d="M68.693,75.715v9.882h-2.6v-9.882H68.693z"/>
<path fill="#1C6802" d="M82.567,80.059v5.538h-1.272c-0.104-0.41-0.217-0.755-0.341-1.035c-0.525,0.791-1.303,1.188-2.333,1.188
	c-1.092,0-1.989-0.445-2.692-1.336c-0.704-0.891-1.056-2.096-1.056-3.616c0-1.477,0.341-2.719,1.021-3.725
	c0.68-1.007,1.692-1.51,3.037-1.51c1.009,0,1.821,0.3,2.438,0.897c0.616,0.599,1.016,1.448,1.198,2.549l-2.52,0.289
	c-0.124-1.027-0.511-1.542-1.16-1.542c-0.853,0-1.278,0.946-1.278,2.838c0,1.145,0.137,1.898,0.41,2.263
	c0.272,0.364,0.604,0.547,0.992,0.547c0.314,0,0.582-0.111,0.804-0.333c0.221-0.222,0.334-0.526,0.338-0.912h-1.402v-2.1H82.567z"/>
<path fill="#1C6802" d="M96.206,75.715v9.882h-2.6v-3.844h-1.985v3.844h-2.6v-9.882h2.6v3.634h1.985v-3.634H96.206z"/>
<path fill="#1C6802" d="M106.239,78.082v7.515h-2.463v-7.515h-1.756v-2.367h5.975v2.367H106.239z"/>
<path fill="#1C6802" d="M127.367,81.897h-2.761v3.699h-2.531v-9.882h6.124v2.353h-3.593v1.607h2.761V81.897z"/>
<path fill="#1C6802" d="M140.976,75.715v6.544c0,1.241-0.315,2.133-0.946,2.676s-1.452,0.814-2.466,0.814
	c-1.067,0-1.925-0.261-2.572-0.782s-0.971-1.37-0.971-2.548v-6.704h2.644v6.349c0,0.474,0.085,0.818,0.256,1.035
	c0.172,0.218,0.445,0.326,0.82,0.326c0.313,0,0.57-0.078,0.771-0.235c0.2-0.156,0.319-0.334,0.358-0.532
	c0.039-0.197,0.06-0.584,0.06-1.158v-5.784H140.976z"/>
<path fill="#1C6802" d="M150.929,78.082v7.515h-2.463v-7.515h-1.756v-2.367h5.975v2.367H150.929z"/>
<path fill="#1C6802" d="M165.373,75.715v6.544c0,1.241-0.315,2.133-0.946,2.676s-1.452,0.814-2.466,0.814
	c-1.067,0-1.925-0.261-2.572-0.782s-0.971-1.37-0.971-2.548v-6.704h2.644v6.349c0,0.474,0.085,0.818,0.256,1.035
	c0.172,0.218,0.445,0.326,0.82,0.326c0.313,0,0.57-0.078,0.771-0.235c0.2-0.156,0.319-0.334,0.358-0.532
	c0.039-0.197,0.06-0.584,0.06-1.158v-5.784H165.373z"/>
<path fill="#1C6802" d="M179.384,85.597h-2.882l-1.236-3.779h-0.82v3.779h-2.6v-9.882h4.424c0.976,0,1.734,0.267,2.273,0.8
	c0.54,0.533,0.811,1.237,0.811,2.11c0,0.569-0.1,1.072-0.298,1.51c-0.199,0.437-0.601,0.821-1.204,1.154L179.384,85.597z
	 M174.445,79.704h1.11c0.327,0,0.59-0.08,0.788-0.239s0.298-0.394,0.298-0.702c0-0.633-0.333-0.948-0.999-0.948h-1.197V79.704z"/>
<path fill="#1C6802" d="M192.067,83.236v2.36h-6.372v-9.882h6.372v2.28h-3.822v1.434h3.09v2.193h-3.09v1.614H192.067z"/>
</svg>
